# xmcd
#
# Track frame offsets:
#	150
#	15300
#	31725
#	50913
#	52018
#	73908
#	94973
#	114473
#	135494
#	150644
#	167069
#	186257
#	205822
#	226895
#	246837
#	266337
#
# Disc length: 3831 seconds
#
# Revision: 1
# Processed by: cddbd v1.5.2PL0 Copyright (c) Steve Scherf et al.
# Submitted via: audiograbber 1.83.01
#
DISCID=da0ef510
DTITLE=Various Artist - Karaoke Party - Best of Country Disc 1
DYEAR=2006
DGENRE=Karaoke
TTITLE0=Brooks and Dunn - Play Something Country
TTITLE1=Rascal Flatts - What Hurts the Most
TTITLE2=Keith Urban - Makin' Memories of Us
TTITLE3=Brad Paisley - Alcohol
TTITLE4=Little Big Town - Boondocks
TTITLE5=Brad Paisley and Alison Krauss - Wiskey Lullaby
TTITLE6=Montgomery Gentry - Something To Be Proud Of
TTITLE7=Dierks Bently - Lot of Leavin' Left To Do
TTITLE8=Brooks and Dunn - Play Something Country w/ Vocals
TTITLE9=Rascal Flatts - What Hurts the Most w/ Vocals
TTITLE10=Keith Urban - Makin' Memories of Us w/ Vocals
TTITLE11=Brad Paisley - Alcohol w/ Vocals
TTITLE12=Little Big Town - Boondocks w/ Vocals
TTITLE13=Brad Paisley and Alison Krauss - Wiskey Lullaby w/ Vocals
TTITLE14=Montgomery Gentry - Something To Be Proud Of w/ Vocals
TTITLE15=Dierks Bently - Lot of Leavin' Left To Do w/ Vocals
EXTD=
EXTT0=
EXTT1=
EXTT2=
EXTT3=
EXTT4=
EXTT5=
EXTT6=
EXTT7=
EXTT8=
EXTT9=
EXTT10=
EXTT11=
EXTT12=
EXTT13=
EXTT14=
EXTT15=
PLAYORDER=
